<svg width="158" height="158" viewBox="0 0 158 158" fill="none" xmlns="http://www.w3.org/2000/svg">
<circle opacity="0.1" cx="79" cy="79" r="79" fill="#FF9A02"/>
<circle opacity="0.4" cx="138" cy="71" r="4" fill="#FF9A02"/>
<circle opacity="0.9" cx="66.5" cy="139.5" r="2.5" fill="#FF9A02"/>
<circle opacity="0.3" cx="24.5" cy="53.5" r="2.5" fill="#FF9A02"/>
<circle opacity="0.4" cx="83" cy="25" r="1" fill="#3CCDAE"/>
<path opacity="0.2" d="M83.1234 38.3168C84.6947 35.8427 88.3053 35.8427 89.8766 38.3168L134.992 109.356C136.684 112.019 134.77 115.5 131.616 115.5H41.3843C38.2296 115.5 36.3164 112.019 38.0077 109.356L83.1234 38.3168Z" fill="#FF9A02"/>
<path d="M76.1234 30.3168C77.6947 27.8427 81.3053 27.8427 82.8766 30.3168L127.992 101.356C129.684 104.019 127.77 107.5 124.616 107.5H34.3843C31.2296 107.5 29.3164 104.019 31.0077 101.356L76.1234 30.3168Z" fill="#FF9A02"/>
<path d="M81.737 65.895L81.23 84.81H77.525L77.018 65.895H81.737ZM79.514 93.273C78.708 93.273 78.032 93 77.486 92.454C76.94 91.908 76.667 91.232 76.667 90.426C76.667 89.62 76.94 88.944 77.486 88.398C78.032 87.852 78.708 87.579 79.514 87.579C80.294 87.579 80.957 87.852 81.503 88.398C82.049 88.944 82.322 89.62 82.322 90.426C82.322 91.232 82.049 91.908 81.503 92.454C80.957 93 80.294 93.273 79.514 93.273Z" fill="white"/>
</svg>
