<svg width="246" height="140" viewBox="0 0 246 140" fill="none" xmlns="http://www.w3.org/2000/svg">
<path d="M9 16C9 7.16344 16.1634 0 25 0H223C231.837 0 239 7.16344 239 16V124C239 132.837 231.837 140 223 140H25C16.1634 140 9 132.837 9 124V16Z" fill="#98EAF3"/>
<path opacity="0.3" d="M238 74.906H20" stroke="black" stroke-width="0.4" stroke-dasharray="2 2"/>
<circle cx="8.5" cy="72.906" r="8.5" fill="white"/>
<circle cx="237.5" cy="72.906" r="8.5" fill="white"/>
<path d="M86.6667 39C86.6667 41.9455 89.0545 44.3333 92 44.3333C94.9455 44.3333 97.3333 41.9455 97.3333 39C97.3333 36.0545 94.9455 33.6667 92 33.6667C89.0545 33.6667 86.6667 36.0545 86.6667 39ZM165.707 39.7071C166.098 39.3166 166.098 38.6834 165.707 38.2929L159.343 31.9289C158.953 31.5384 158.319 31.5384 157.929 31.9289C157.538 32.3195 157.538 32.9526 157.929 33.3431L163.586 39L157.929 44.6569C157.538 45.0474 157.538 45.6805 157.929 46.0711C158.319 46.4616 158.953 46.4616 159.343 46.0711L165.707 39.7071ZM92 40H94.0278V38H92V40ZM98.0833 40H102.139V38H98.0833V40ZM106.194 40H110.25V38H106.194V40ZM114.306 40H118.361V38H114.306V40ZM122.417 40H126.472V38H122.417V40ZM130.528 40H134.583V38H130.528V40ZM138.639 40H142.694V38H138.639V40ZM146.75 40H150.806V38H146.75V40ZM154.861 40H158.917V38H154.861V40ZM162.972 40H165V38H162.972V40Z" fill="#868181"/>
</svg>
