<svg width="158" height="158" viewBox="0 0 158 158" fill="none" xmlns="http://www.w3.org/2000/svg">
<circle opacity="0.1" cx="79" cy="79" r="79" fill="#FF7456"/>
<circle opacity="0.3" cx="83" cy="85" r="45" fill="#FF7456"/>
<circle cx="79" cy="79" r="45" fill="#FF7253"/>
<path d="M81.737 64.895L81.23 83.81H77.525L77.018 64.895H81.737ZM79.514 92.273C78.708 92.273 78.032 92 77.486 91.454C76.94 90.908 76.667 90.232 76.667 89.426C76.667 88.62 76.94 87.944 77.486 87.398C78.032 86.852 78.708 86.579 79.514 86.579C80.294 86.579 80.957 86.852 81.503 87.398C82.049 87.944 82.322 88.62 82.322 89.426C82.322 90.232 82.049 90.908 81.503 91.454C80.957 92 80.294 92.273 79.514 92.273Z" fill="white"/>
<circle opacity="0.4" cx="138" cy="71" r="4" fill="#FF7456"/>
<circle opacity="0.9" cx="66.5" cy="139.5" r="2.5" fill="#FF7456"/>
<circle opacity="0.3" cx="24.5" cy="53.5" r="2.5" fill="#FF7456"/>
<circle opacity="0.4" cx="83" cy="25" r="1" fill="#3CCDAE"/>
</svg>
